<?xml version="1.0" encoding="utf-8"?>
<!-- Generator: Adobe Illustrator 19.0.0, SVG Export Plug-In . SVG Version: 6.00 Build 0)  -->
<svg version="1.1" id="Layer_1" xmlns="http://www.w3.org/2000/svg" xmlns:xlink="http://www.w3.org/1999/xlink" x="0px" y="0px"
	 viewBox="-17.9 141 449.9 493.5" style="enable-background:new -17.9 141 449.9 493.5;" xml:space="preserve">
<style type="text/css">
	.st0{fill:#50B9FF;}
	.st1{fill:#48A7E6;}
	.st2{fill:#DB632C;}
	.st3{fill:#5C5F66;}
	.st4{fill:#53565C;}
	.st5{fill:#EC7838;}
</style>
<path class="st0" d="M237,502h-210c-9.1,0-16-8-14.9-16.9C34.3,308.7,139.7,216.7,235,203.4c15-2.1,23.3,17.1,11.4,26.6
	C212.3,257,192,296.6,192,336c0,46.1,22.2,115.1,54,139C257.5,483.6,251.4,502,237,502z"/>
<path class="st1" d="M400.1,479.7l-150-270.9c-2.7-4.9-7.9-7.5-13.1-7.5V502h150c5.3,0,10.2-2.8,12.9-7.4
	C402.6,490,402.7,484.3,400.1,479.7z"/>
<path class="st2" d="M297,231h-60v-90h120c8.2,0,15,6.6,15,14.9C372.1,197.3,338.4,231,297,231z"/>
<path class="st3" d="M237,562c-8.3,0-15-6.7-15-15V156c0-8.3,6.7-15,15-15s15,6.7,15,15V547C252,555.3,245.3,562,237,562z"/>
<path class="st4" d="M252,547V156c0-8.3-6.7-15-15-15V562C245.3,562,252,555.3,252,547z"/>
<path class="st5" d="M417,532H-2.9c-10.2,0-17.5,10.1-14.2,19.7l16.3,50c4,12.1,10.9,22.7,19.9,31.1l91.9,1.8l96-0.9l97.5,0.9
	l88.5,0c10-8.7,17.6-19.9,21.9-32.9l16.3-50C434.5,542,427.2,532,417,532z"/>
<path class="st2" d="M417,532H237v92.6l67.5-20.4l88.5,30.4c10-8.7,17.6-19.9,21.9-32.9l16.3-50C434.5,542,427.2,532,417,532z"/>
</svg>
