<?xml version="1.0" encoding="utf-8"?>
<!-- Generator: Adobe Illustrator 19.0.0, SVG Export Plug-In . SVG Version: 6.00 Build 0)  -->
<svg version="1.1" id="Capa_1" xmlns="http://www.w3.org/2000/svg" xmlns:xlink="http://www.w3.org/1999/xlink" x="0px" y="0px"
	 viewBox="-92 183.3 426.7 426.7" style="enable-background:new -92 183.3 426.7 426.7;" xml:space="preserve">
<style type="text/css">
	.st0{fill:#3EA69B;}
	.st1{fill:#E56353;}
	.st2{fill:#64798A;}
	.st3{fill:#3A556A;}
	.st4{fill:#2F4859;}
	.st5{fill:#D5D6DB;}
</style>
<polygon class="st0" points="146.6,216.6 235,216.6 146.6,277.1 "/>
<path class="st1" d="M152.1,281.7c0,0,109.8,6.6,109.7,113.5c0,29.2-58.3,67.6-109.7,81.8C152.1,477,196.9,358.1,152.1,281.7z"/>
<path class="st2" d="M148.7,199.1h-4.1c-4.3,0-7.8,3.5-7.8,7.8v284h19.7v-284C156.5,202.6,153,199.1,148.7,199.1z"/>
<path class="st3" d="M41.3,581.1h237.4l56-90.2H51.3c0,0-107.5,7.3-143.3-54.3L4.3,581.1L41.3,581.1L41.3,581.1z"/>
<polygon class="st4" points="135.3,581.1 278.7,581.1 334.7,490.9 135.3,490.9 "/>
<polygon class="st1" points="136.8,270.8 -70.8,460.6 33,453.5 "/>
<g>
	<rect x="34" y="508.9" class="st5" width="52.1" height="20.4"/>
	<rect x="120.2" y="508.9" class="st5" width="52.1" height="20.4"/>
	<rect x="206.7" y="508.9" class="st5" width="52.1" height="20.4"/>
</g>
</svg>
