<?xml version="1.0" encoding="utf-8"?>
<!-- Generator: Adobe Illustrator 19.0.0, SVG Export Plug-In . SVG Version: 6.00 Build 0)  -->
<svg version="1.1" id="Layer_1" xmlns="http://www.w3.org/2000/svg" xmlns:xlink="http://www.w3.org/1999/xlink" x="0px" y="0px"
	 viewBox="-291.9 395.5 449.9 493.6" style="enable-background:new -291.9 395.5 449.9 493.6;" xml:space="preserve">
<style type="text/css">
	.st0{fill:#50B9FF;}
	.st1{fill:#48A7E6;}
	.st2{fill:#DB632C;}
	.st3{fill:#5C5F66;}
	.st4{fill:#53565C;}
	.st5{fill:#EC7838;}
</style>
<path class="st0" d="M-37,756.5h-210c-9.1,0-16-8-14.9-16.9C-239.7,563.2-134.3,471.2-39,457.9c15-2.1,23.3,17.1,11.4,26.6
	c-34.1,27-54.4,66.6-54.4,106c0,46.1,22.2,115.1,54,139C-16.5,738.1-22.6,756.5-37,756.5z"/>
<path class="st1" d="M126.1,734.2l-150-270.9c-2.7-4.9-7.9-7.5-13.1-7.5v300.7h150c5.3,0,10.2-2.8,12.9-7.4
	C128.6,744.5,128.7,738.8,126.1,734.2z"/>
<path class="st2" d="M23,485.5h-60v-90H83c8.2,0,15,6.6,15,14.9C98.1,451.8,64.4,485.5,23,485.5z"/>
<path class="st3" d="M-37,816.5c-8.3,0-15-6.7-15-15v-391c0-8.3,6.7-15,15-15s15,6.7,15,15v391C-22,809.8-28.7,816.5-37,816.5z"/>
<path class="st4" d="M-22,801.5v-391c0-8.3-6.7-15-15-15v421C-28.7,816.5-22,809.8-22,801.5z"/>
<path class="st5" d="M143,786.5h-419.9c-10.2,0-17.5,10.1-14.2,19.7l16.3,50c4,12.1,10.9,22.7,19.9,31.1l91.9,1.8l96-0.9l97.5,0.9
	H119c10-8.7,17.6-19.9,21.9-32.9l16.3-50C160.5,796.5,153.2,786.5,143,786.5z"/>
<path class="st2" d="M143,786.5H-37v92.6l67.5-20.4l88.5,30.4c10-8.7,17.6-19.9,21.9-32.9l16.3-50
	C160.5,796.5,153.2,786.5,143,786.5z"/>
</svg>
