<?xml version="1.0" encoding="utf-8"?>
<!-- Generator: Adobe Illustrator 19.0.0, SVG Export Plug-In . SVG Version: 6.00 Build 0)  -->
<svg version="1.1" id="Capa_1" xmlns="http://www.w3.org/2000/svg" xmlns:xlink="http://www.w3.org/1999/xlink" x="0px" y="0px"
	 viewBox="-378 486.4 426.7 382" style="enable-background:new -378 486.4 426.7 382;" xml:space="preserve">
<style type="text/css">
	.st0{fill:#3EA69B;}
	.st1{fill:#E56353;}
	.st2{fill:#64798A;}
	.st3{fill:#3A556A;}
	.st4{fill:#2F4859;}
	.st5{fill:#D5D6DB;}
</style>
<polygon class="st0" points="-139.4,503.9 -51,503.9 -139.4,564.4 "/>
<path class="st1" d="M-133.9,569c0,0,109.8,6.6,109.7,113.5c0,29.2-58.3,67.6-109.7,81.8C-133.9,764.3-89.1,645.4-133.9,569z"/>
<path class="st2" d="M-137.3,486.4h-4.1c-4.3,0-7.8,3.5-7.8,7.8v284h19.7v-284C-129.5,489.9-133,486.4-137.3,486.4z"/>
<path class="st3" d="M-244.7,868.4H-7.3l56-90.2h-283.4c0,0-107.5,7.3-143.3-54.3l96.3,144.5H-244.7L-244.7,868.4z"/>
<polygon class="st4" points="-150.7,868.4 -7.3,868.4 48.7,778.2 -150.7,778.2 "/>
<polygon class="st1" points="-149.2,558.1 -356.8,747.9 -253,740.8 "/>
<g>
	<rect x="-252" y="796.2" class="st5" width="52.1" height="20.4"/>
	<rect x="-165.8" y="796.2" class="st5" width="52.1" height="20.4"/>
	<rect x="-79.3" y="796.2" class="st5" width="52.1" height="20.4"/>
</g>
</svg>
